PathFileType	4	(X/Y/Z)	pose_F01_0-96.trc
DataRate	CameraRate	NumFrames	NumMarkers	Units	OrigDataRate	OrigDataStartFrame	OrigNumFrames
30	30	9	21	m	30	72	96
Frame#	Time	CHip			RHip			RKnee			RAnkle			RBigToe			RSmallToe			RHeel			LHip			LKnee			LAnkle			LBigToe			LSmallToe			LHeel			Neck			Nose			RShoulder			RElbow			RWrist			LShoulder			LElbow			LWrist			
		X1	Y1	Z1	X2	Y2	Z2	X3	Y3	Z3	X4	Y4	Z4	X5	Y5	Z5	X6	Y6	Z6	X7	Y7	Z7	X8	Y8	Z8	X9	Y9	Z9	X10	Y10	Z10	X11	Y11	Z11	X12	Y12	Z12	X13	Y13	Z13	X14	Y14	Z14	X15	Y15	Z15	X16	Y16	Z16	X17	Y17	Z17	X18	Y18	Z18	X19	Y19	Z19	X20	Y20	Z20	X21	Y21	Z21	
72	2.4	-0.3101169155003351	1.815566014108919	-0.56481903288413	-0.31732873566691583	1.811856368165161	-0.5093708126631716	-0.30345636057271774	1.6880037487248138	-0.49420576915572734	-0.30612479871960346	1.550941788214815	-0.47363756193500645	-0.26096457399418294	1.5251572650261784	-0.4510162356179107	-0.2747959456683526	1.5289652424524178	-0.43157049946836656	-0.32987541578561697	1.5407700865511877	-0.520243822846574	-0.30127740624291866	1.8184288702717004	-0.6170047176000881	-0.2935368730422156	1.69416678364456	-0.6143908325016451													-0.2873267034087499	1.9590128317047273	-0.5743488060309297	-0.22979915159158015	2.012190325661972	-0.5708202435544864	-0.292535950439984	1.9517622738218183	-0.4955439252138057	-0.30473771984996856	1.869891269528515	-0.46354392784319753	-0.25747229446987346	1.8126394493466502	-0.43707554425675454	-0.2742559781371191	1.967685733502475	-0.6597441450511474	-1.1072105723674264	1.8203155443313705	0.11718399711051686	-0.23252134221275192	1.8432624414077459	-0.7292130713920862
73	2.433333333333333	-0.30424658781234587	1.8167748778828445	-0.5800299117127835	-0.3133545981366324	1.8117060104141411	-0.5224575761763973	-0.304554824185909	1.6900496404261702	-0.4976648789531607	-0.30612479871960346	1.550941788214815	-0.47363756193500645	-0.26096457399418294	1.5251572650261784	-0.4510162356179107	-0.274330485292015	1.5293572962988724	-0.4321316814740868	-0.32987541578561697	1.5407700865511877	-0.520243822846574	-0.2989388255448934	1.8207125903474115	-0.6364862978475719	-0.2984437796000947	1.6961245647536103	-0.63097100569031													-0.2900712931202325	1.9631450147613356	-0.5841736546890498	-0.23563462044168945	2.01376752650136	-0.5727034966433833	-1.5972419202832493	1.8716905259776058	0.8887741232452616	-0.30472721728540175	1.8717703601397508	-0.47257775396584606	-0.26320804666285713	1.812966254885231	-0.44849681070562747	-0.2748859856299831	1.9694813813047598	-0.6712115385856858	-1.0665915143352955	1.821930526768165	0.051314632340861525	-0.35426514527641667	1.8304171520276389	-0.6306285431151541
74	2.466666666666667	-0.3114334033089746	1.8169710100334788	-0.6110085444683001	-0.31938765576173633	1.811124064209648	-0.5553536011328447	-0.309191369346357	1.6904520665152436	-0.5194222331626972	-0.30612479871960346	1.550941788214815	-0.47363756193500645	-0.26096457399418294	1.5251572650261784	-0.4510162356179107	-0.2731246628785927	1.530434547600419	-0.43810947341949713	-0.32987541578561697	1.5407700865511877	-0.520243822846574	-0.3037292436811202	1.8204967687194358	-0.66916193286659	-0.3065991786110467	1.6903659920193437	-0.6565475199794139													-0.2997781142319102	1.9692002910102664	-0.616187752003416	-0.2451965536391194	2.0212772082257127	-0.5966342899765291	-1.5245527508901164	1.8754484008795487	0.7563639155221581	-0.31488352687324006	1.8770672262489259	-0.497212603748137	-0.2721177757622499	1.8170911499079467	-0.4702875490903076	-0.28392126051190564	1.9748282964307002	-0.7022572586923636	-1.0058681053342182	1.8264781023559886	-0.05113164265936696	-0.47600894834008145	1.8175718626475317	-0.532044014838222
75	2.5	-0.3139176654679143	1.8157257705593652	-0.6256147343631974	-0.3218855704527867	1.8128062112184231	-0.5703572774679535	-0.3138795835136103	1.694163410841828	-0.5326066651350511	-0.30612479871960346	1.550941788214815	-0.47363756193500645	-0.26096457399418294	1.5251572650261784	-0.4510162356179107	-0.2731246628785927	1.530434547600419	-0.43810947341949713	-0.32987541578561697	1.5407700865511877	-0.520243822846574	-0.3070914583477729	1.8196495206951788	-0.6785419227027107	-0.3091172742170185	1.6942823475695306	-0.6626044017383513													-0.30080576127511377	1.9707388123018206	-0.6280106663018558	-0.25090439682711696	2.0279204880398205	-0.6162887944780875	-0.3066953453240775	1.9649973080794036	-0.5500244398392758	-0.3193320654379192	1.88265632473143	-0.5190449901504806	-0.27916000063701174	1.8194022587117955	-0.48993806124121225	-0.28672496030472094	1.9782944218419165	-0.712268637897415	-0.9789919348675811	1.8309129075142723	-0.08572114235097741	-0.5977527514037462	1.8047265732674247	-0.43345948656128985
76	2.533333333333333	-0.3154994198347712	1.814811371157601	-0.6321115911809899	-0.32451764143613054	1.8112731523858758	-0.5799895733989521	-0.3143458109556302	1.6923817304179836	-0.5451554691896527	-0.30612479871960346	1.550941788214815	-0.47363756193500645	-0.26096457399418294	1.5251572650261784	-0.4510162356179107	-0.2731246628785927	1.530434547600419	-0.43810947341949713	-0.32987541578561697	1.5407700865511877	-0.520243822846574	-0.31048240447471176	1.8183297282397926	-0.6911510255097242	-0.3119817225168734	1.6959966486067726	-0.6727414288052045													-0.3057747275561716	1.972678329438254	-0.6438722691067306	-0.2565003985442345	2.0337445647300645	-0.6274480174665796	-0.31392162217836866	1.9668356976150816	-0.564003487209681	-0.324695037021601	1.884334674579451	-0.5272077206382398	-0.28349045417664204	1.8252146002683385	-0.5039259752807668	-0.2912946934452009	1.978836402658621	-0.7275031602994553	-0.9358484745770516	1.832339065598833	-0.15623290184655056	-0.7194965544674109	1.7918812838873175	-0.3348749582843577
77	2.566666666666667	-0.31911683604568386	1.8226581541867917	-0.6454701587716848	-0.32596756649931313	1.8181853932052419	-0.5874220357948744	-0.3143458109556302	1.6923817304179836	-0.5451554691896527	-0.30612479871960346	1.550941788214815	-0.47363756193500645	-0.26096457399418294	1.5251572650261784	-0.4510162356179107	-0.2731246628785927	1.530434547600419	-0.43810947341949713	-0.32987541578561697	1.5407700865511877	-0.520243822846574	-0.31224386979356855	1.8244405019269028	-0.6979480311526172	-0.3129053102589272	1.6961099622259623	-0.6741178888852671													-0.3085625918972663	1.9757664697027406	-0.6535223001954468	-0.2603048300342034	2.0381859224669556	-0.6405203272110316	-0.3169843542677968	1.9697417323795567	-0.5738954812732693	-0.32770377764475	1.8873657896024216	-0.5370664590596758	-0.29351165135541774	1.8298433254642221	-0.5023261893115969	-0.2918965167020235	1.9832351523732399	-0.7393210391773002	-0.9170499186773031	1.8354012406971019	-0.18352368035876024	-0.8412403575310756	1.7790359945072105	-0.23629043000742553
78	2.6	-0.32008370192800056	1.822025612250319	-0.6487362510800444	-0.3271814589969117	1.8202843236446171	-0.5908320187781839	-0.3143458109556302	1.6923817304179836	-0.5451554691896527	-0.30612479871960346	1.550941788214815	-0.47363756193500645	-0.26096457399418294	1.5251572650261784	-0.4510162356179107	-0.2731246628785927	1.530434547600419	-0.43810947341949713	-0.32987541578561697	1.5407700865511877	-0.520243822846574	-0.31015128507097844	1.8238169191654554	-0.7002206581753639	-0.31382889800098107	1.696223275845152	-0.6754943489653298													-0.30960729520797325	1.9763006884373622	-0.6567201757479956	-0.2641068407346278	2.041514273994218	-0.6534791967479084	-0.32315760537577976	1.9715116737439573	-0.5761695648982739	-0.33094858182492276	1.890781704764663	-0.5472030830912817	-0.30024240489655024	1.8368581283376555	-0.5088842955309925	-0.2937333176889218	1.9835648112546647	-0.7454558023494784	-0.8818520554047872	1.836043215195857	-0.23070274126310802	-0.8180461669755852	1.7753669384584865	-0.2615012854154983
79	2.6333333333333333	-0.32099521156855765	1.820160215998247	-0.6517867359145759	-0.3291967095351811	1.8187398851849244	-0.5969712261820203	-0.3143458109556302	1.6923817304179836	-0.5451554691896527	-0.30612479871960346	1.550941788214815	-0.47363756193500645	-0.26096457399418294	1.5251572650261784	-0.4510162356179107	-0.2731246628785927	1.530434547600419	-0.43810947341949713	-0.32987541578561697	1.5407700865511877	-0.520243822846574	-0.3109041497823087	1.8216321717077189	-0.7032768576098098	-0.3147524857430349	1.6963365894643418	-0.6768708090453923													-0.3145500247698253	1.9783139715807907	-0.6640711132459407	-0.2661128425945523	2.044110583536796	-0.660540370559991	-0.32735453161300615	1.9721808878140694	-0.5803477098284201	-0.3329502624287348	1.8920082971316765	-0.5535382661268119	-0.3027594047569227	1.8374055442698698	-0.5154088235496155	-0.29556638614496805	1.9838172443525226	-0.7514501831749506	-0.8820369435210458	1.8355407974452922	-0.2304040021312772	-0.8107726977630033	1.7782463376770927	-0.27723927170455237
80	2.6666666666666665	-0.32319743533418815	1.8219031364302862	-0.6498382067130228	-0.3323843548501739	1.8199305586477088	-0.5981083771756843	-0.3143458109556302	1.6923817304179836	-0.5451554691896527	-0.30612479871960346	1.550941788214815	-0.47363756193500645	-0.26096457399418294	1.5251572650261784	-0.4510162356179107	-0.2731246628785927	1.530434547600419	-0.43810947341949713	-0.32987541578561697	1.5407700865511877	-0.520243822846574	-0.3111894975969275	1.824416344537742	-0.703349809524956	-0.3156760734850887	1.6964499030835316	-0.678247269125455													-0.3155228893937467	1.9786281135978676	-0.6670714565089573	-0.26993976462309655	2.046637907349313	-0.6649315696864991	-0.3303342755127415	1.9746311549798254	-0.5817180204976212	-0.3349798518390234	1.892190383492732	-0.5516796481983745	-0.3089080925939142	1.8367894341302642	-0.5174346329253682	-0.2955893861427325	1.983842369160798	-0.7515382952837661	-0.8816770717580309	1.8365922116770386	-0.23128842040951866	-0.8112717196684509	1.7830171518840148	-0.28528453788032404
